<?xml version="1.0" encoding="utf-8"?>
<svg xmlns="http://www.w3.org/2000/svg" fill="none" height="100%" overflow="visible" preserveAspectRatio="none" style="display: block;" viewBox="0 0 20 20" width="100%">
<g clip-path="url(#clip0_0_3618)" id="Icon">
<path d="M14.1667 1.66667H5.83333C3.53215 1.66667 1.66667 3.53215 1.66667 5.83333V14.1667C1.66667 16.4679 3.53215 18.3333 5.83333 18.3333H14.1667C16.4679 18.3333 18.3333 16.4679 18.3333 14.1667V5.83333C18.3333 3.53215 16.4679 1.66667 14.1667 1.66667Z" id="Vector" stroke="var(--stroke-0, #99A1AF)" stroke-linecap="round" stroke-width="1.66667"/>
<path d="M13.3333 9.47484C13.4361 10.1684 13.3177 10.8767 12.9948 11.499C12.6718 12.1214 12.1609 12.626 11.5346 12.9412C10.9084 13.2565 10.1987 13.3662 9.50645 13.2548C8.81423 13.1434 8.17476 12.8166 7.67899 12.3208C7.18322 11.825 6.8564 11.1856 6.74502 10.4934C6.63363 9.80114 6.74335 9.09142 7.05856 8.46516C7.37378 7.83889 7.87845 7.32796 8.50078 7.00505C9.12311 6.68213 9.83142 6.56367 10.525 6.66651C11.2324 6.77142 11.8873 7.10106 12.393 7.60677C12.8987 8.11247 13.2284 8.76741 13.3333 9.47484Z" id="Vector_2" stroke="var(--stroke-0, #99A1AF)" stroke-linecap="round" stroke-width="1.66667"/>
<path d="M14.5833 5.41667H14.5917" id="Vector_3" stroke="var(--stroke-0, #99A1AF)" stroke-linecap="round" stroke-width="1.66667"/>
</g>
<defs>
<clipPath id="clip0_0_3618">
<rect fill="white" height="20" width="20"/>
</clipPath>
</defs>
</svg>