<?xml version="1.0" encoding="utf-8"?>
<svg xmlns="http://www.w3.org/2000/svg" fill="none" height="100%" overflow="visible" preserveAspectRatio="none" style="display: block;" viewBox="0 0 64 64" width="100%">
<g id="Container">
<path d="M0 16C0 7.16344 7.16344 0 16 0H48C56.8366 0 64 7.16344 64 16V48C64 56.8366 56.8366 64 48 64H16C7.16344 64 0 56.8366 0 48V16Z" fill="var(--fill-0, white)" fill-opacity="0.05"/>
<g id="Icon">
<path d="M41.3333 25.3333V21.3333C41.3333 20.9797 41.1929 20.6406 40.9428 20.3905C40.6928 20.1405 40.3536 20 40 20H22.6667C21.9594 20 21.2811 20.281 20.781 20.781C20.281 21.2811 20 21.9594 20 22.6667C20 23.3739 20.281 24.0522 20.781 24.5523C21.2811 25.0524 21.9594 25.3333 22.6667 25.3333H42.6667C43.0203 25.3333 43.3594 25.4738 43.6095 25.7239C43.8595 25.9739 44 26.313 44 26.6667V32M44 32H40C39.2928 32 38.6145 32.281 38.1144 32.781C37.6143 33.2811 37.3333 33.9594 37.3333 34.6667C37.3333 35.3739 37.6143 36.0522 38.1144 36.5523C38.6145 37.0524 39.2928 37.3333 40 37.3333H44C44.3536 37.3333 44.6928 37.1929 44.9428 36.9428C45.1929 36.6928 45.3333 36.3536 45.3333 36V33.3333C45.3333 32.9797 45.1929 32.6406 44.9428 32.3905C44.6928 32.1405 44.3536 32 44 32Z" id="Vector" stroke="var(--stroke-0, #D8FF3A)" stroke-linecap="round" stroke-linejoin="round" stroke-width="2.66667"/>
<path d="M20 22.6667V41.3333C20 42.0406 20.281 42.7189 20.781 43.219C21.2811 43.719 21.9594 44 22.6667 44H42.6667C43.0203 44 43.3594 43.8595 43.6095 43.6095C43.8595 43.3594 44 43.0203 44 42.6667V37.3333" id="Vector_2" stroke="var(--stroke-0, #D8FF3A)" stroke-linecap="round" stroke-linejoin="round" stroke-width="2.66667"/>
</g>
</g>
</svg>