<?xml version="1.0" encoding="utf-8"?>
<svg xmlns="http://www.w3.org/2000/svg" viewBox="14 14 36 36" width="100%" height="100%" fill="none" stroke="#C2F141" stroke-width="2.66667" stroke-linecap="round" stroke-linejoin="round" style="display:block;">
  <path d="M26.6667 34.6667C31.0849 34.6667 34.6667 31.0849 34.6667 26.6667C34.6667 22.2484 31.0849 18.6667 26.6667 18.6667C22.2484 18.6667 18.6667 22.2484 18.6667 26.6667C18.6667 31.0849 22.2484 34.6667 26.6667 34.6667Z" />
  <path d="M40.12 29.8268C41.3804 30.2967 42.502 31.0769 43.381 32.0951C44.26 33.1133 44.8681 34.3367 45.149 35.6522C45.4299 36.9678 45.3745 38.3328 44.9881 39.6213C44.6016 40.9097 43.8965 42.0799 42.9379 43.0236C41.9793 43.9674 40.7983 44.6541 39.504 45.0205C38.2097 45.3868 36.8439 45.4208 35.5329 45.1194C34.2219 44.818 33.0082 44.191 32.0038 43.2962C30.9994 42.4014 30.2368 41.2677 29.7867 40.0002" />
  <path d="M25.3333 24H26.6667V29.3333" />
  <path d="M38.28 34.5065L39.2133 35.4532L35.4533 39.2132" />
</svg>
